<svg width="120" height="40" viewBox="0 0 120 40" fill="none" xmlns="http://www.w3.org/2000/svg">
  <path d="M20 0H100C111.046 0 120 8.95431 120 20C120 31.0457 111.046 40 100 40H20C8.95431 40 0 31.0457 0 20C0 8.95431 8.95431 0 20 0Z" fill="#ED1D24"/>
  <path d="M98.9844 29.4141H89.7656L87.9375 34H81.8281L91.4375 8.125H97.3438L107 34H100.844L98.9844 29.4141ZM91.2969 24.8828H97.4531L94.3594 15.8516L91.2969 24.8828Z" fill="white"/>
  <path d="M35.8125 34L29.0469 21.7891H26.8125V34H21.0938V8.125H30.0469C32.0781 8.125 33.8203 8.52344 35.2734 9.32031C36.7266 10.1172 37.8359 11.1875 38.6016 12.5312C39.3672 13.875 39.75 15.3125 39.75 16.8438C39.75 18.6562 39.2109 20.2812 38.1328 21.7188C37.0547 23.1562 35.4844 24.1094 33.4219 24.5781L40.7031 34H35.8125ZM26.8125 17.7969H29.9375C31.3125 17.7969 32.3516 17.4453 33.0547 16.7422C33.7578 16.0391 34.1094 15.0781 34.1094 13.8594C34.1094 12.6719 33.7656 11.7344 33.0781 11.0469C32.3906 10.3594 31.3438 10.0156 29.9375 10.0156H26.8125V17.7969Z" fill="white"/>
  <path d="M60.7344 24.1875H51.0312V32.1094H62.2812V34H45.3125V8.125H62.1719V10.0469H51.0312V22.2969H60.7344V24.1875Z" fill="white"/>
</svg> 